REM DIRINDEX 1\2\3,1\2\4,1\2\5,1\2\6
REM DIRNAME cjc157,folder01,folder02,folder03,folder04,folder05
TITLE ""
FILE "063 063.mp3" MP3
  TRACK 01 AUDIO
    TITLE "0:"
    INDEX 01 00:00:00
  TRACK 02 AUDIO
    TITLE "3:cjc157_2334"
    INDEX 01 00:00:09
  TRACK 03 AUDIO
    TITLE "0:"
    INDEX 01 00:01:34
  TRACK 04 AUDIO
    TITLE "4:cjc157_2335"
    INDEX 01 00:02:08
  TRACK 05 AUDIO
    TITLE "0:"
    INDEX 01 00:03:27
  TRACK 06 AUDIO
    TITLE "5:cjc157_2336"
    INDEX 01 00:03:72
  TRACK 07 AUDIO
    TITLE "0:"
    INDEX 01 00:06:33
  TRACK 08 AUDIO
    TITLE "3:cjc157_2337"
    INDEX 01 00:07:07
  TRACK 09 AUDIO
    TITLE "0:"
    INDEX 01 00:08:26
  TRACK 10 AUDIO
    TITLE "4:cjc157_2338"
    INDEX 01 00:09:02
  TRACK 11 AUDIO
    TITLE "0:"
    INDEX 01 00:10:04
  TRACK 12 AUDIO
    TITLE "5:cjc157_2339"
    INDEX 01 00:10:55
  TRACK 13 AUDIO
    TITLE "0:"
    INDEX 01 00:13:43
  TRACK 14 AUDIO
    TITLE "3:cjc157_2340"
    INDEX 01 00:14:15
  TRACK 15 AUDIO
    TITLE "0:"
    INDEX 01 00:15:44
  TRACK 16 AUDIO
    TITLE "4:cjc157_2341"
    INDEX 01 00:16:16
  TRACK 17 AUDIO
    TITLE "0:"
    INDEX 01 00:17:39
  TRACK 18 AUDIO
    TITLE "5:cjc157_2342"
    INDEX 01 00:18:13
  TRACK 19 AUDIO
    TITLE "0:"
    INDEX 01 00:20:00
  TRACK 20 AUDIO
    TITLE "3:cjc157_2343"
    INDEX 01 00:20:43
  TRACK 21 AUDIO
    TITLE "0:"
    INDEX 01 00:21:68
  TRACK 22 AUDIO
    TITLE "4:cjc157_2344"
    INDEX 01 00:22:40
  TRACK 23 AUDIO
    TITLE "0:"
    INDEX 01 00:23:61
  TRACK 24 AUDIO
    TITLE "5:cjc157_2345"
    INDEX 01 00:24:33
  TRACK 25 AUDIO
    TITLE "0:"
    INDEX 01 00:26:50
  TRACK 26 AUDIO
    TITLE "5:cjc157_2346"
    INDEX 01 00:27:18
  TRACK 27 AUDIO
    TITLE "0:"
    INDEX 01 00:29:33
  TRACK 28 AUDIO
    TITLE "5:cjc157_2347"
    INDEX 01 00:30:12
  TRACK 29 AUDIO
    TITLE "0:"
    INDEX 01 00:32:07
  TRACK 30 AUDIO
    TITLE "3:cjc157_2348"
    INDEX 01 00:32:50
  TRACK 31 AUDIO
    TITLE "0:"
    INDEX 01 00:33:66
  TRACK 32 AUDIO
    TITLE "4:cjc157_2349"
    INDEX 01 00:34:38
  TRACK 33 AUDIO
    TITLE "0:"
    INDEX 01 00:35:47
  TRACK 34 AUDIO
    TITLE "5:cjc157_2350"
    INDEX 01 00:36:17
  TRACK 35 AUDIO
    TITLE "0:"
    INDEX 01 00:38:55
  TRACK 36 AUDIO
    TITLE "5:cjc157_2351"
    INDEX 01 00:39:31
  TRACK 37 AUDIO
    TITLE "0:"
    INDEX 01 00:41:08
  TRACK 38 AUDIO
    TITLE "3:cjc157_2352"
    INDEX 01 00:41:49
  TRACK 39 AUDIO
    TITLE "0:"
    INDEX 01 00:42:59
  TRACK 40 AUDIO
    TITLE "4:cjc157_2353"
    INDEX 01 00:43:27
  TRACK 41 AUDIO
    TITLE "0:"
    INDEX 01 00:44:38
  TRACK 42 AUDIO
    TITLE "5:cjc157_2354"
    INDEX 01 00:45:10
  TRACK 43 AUDIO
    TITLE "0:"
    INDEX 01 00:46:68
  TRACK 44 AUDIO
    TITLE "5:cjc157_2355"
    INDEX 01 00:47:42
  TRACK 45 AUDIO
    TITLE "0:"
    INDEX 01 00:50:13
  TRACK 46 AUDIO
    TITLE "3:cjc157_2356"
    INDEX 01 00:50:60
  TRACK 47 AUDIO
    TITLE "0:"
    INDEX 01 00:52:04
  TRACK 48 AUDIO
    TITLE "4:cjc157_2357"
    INDEX 01 00:52:51
  TRACK 49 AUDIO
    TITLE "0:"
    INDEX 01 00:53:58
  TRACK 50 AUDIO
    TITLE "5:cjc157_2358"
    INDEX 01 00:54:27
  TRACK 51 AUDIO
    TITLE "0:"
    INDEX 01 00:56:06
  TRACK 52 AUDIO
    TITLE "3:cjc157_2359"
    INDEX 01 00:56:53
  TRACK 53 AUDIO
    TITLE "0:"
    INDEX 01 00:57:62
  TRACK 54 AUDIO
    TITLE "4:cjc157_2360"
    INDEX 01 00:58:32
  TRACK 55 AUDIO
    TITLE "0:"
    INDEX 01 00:59:34
  TRACK 56 AUDIO
    TITLE "5:cjc157_2361"
    INDEX 01 01:00:04
  TRACK 57 AUDIO
    TITLE "0:"
    INDEX 01 01:01:58
  TRACK 58 AUDIO
    TITLE "5:cjc157_2362"
    INDEX 01 01:02:28
  TRACK 59 AUDIO
    TITLE "0:"
    INDEX 01 01:03:69
  TRACK 60 AUDIO
    TITLE "3:cjc157_2363"
    INDEX 01 01:04:45
  TRACK 61 AUDIO
    TITLE "0:"
    INDEX 01 01:05:60
  TRACK 62 AUDIO
    TITLE "4:cjc157_2364"
    INDEX 01 01:06:30
  TRACK 63 AUDIO
    TITLE "0:"
    INDEX 01 01:07:51
  TRACK 64 AUDIO
    TITLE "5:cjc157_2365"
    INDEX 01 01:08:23
  TRACK 65 AUDIO
    TITLE "0:"
    INDEX 01 01:10:31
  TRACK 66 AUDIO
    TITLE "5:cjc157_2366"
    INDEX 01 01:11:00
  TRACK 67 AUDIO
    TITLE "0:"
    INDEX 01 01:13:10
  TRACK 68 AUDIO
    TITLE "3:cjc157_2367"
    INDEX 01 01:13:61
  TRACK 69 AUDIO
    TITLE "0:"
    INDEX 01 01:14:70
  TRACK 70 AUDIO
    TITLE "4:cjc157_2368"
    INDEX 01 01:15:40
  TRACK 71 AUDIO
    TITLE "0:"
    INDEX 01 01:16:60
  TRACK 72 AUDIO
    TITLE "5:cjc157_2369"
    INDEX 01 01:17:32
  TRACK 73 AUDIO
    TITLE "0:"
    INDEX 01 01:19:54
  TRACK 74 AUDIO
    TITLE "5:cjc157_2370"
    INDEX 01 01:20:24
  TRACK 75 AUDIO
    TITLE "0:"
    INDEX 01 01:22:09
